<svg width="61" height="60" viewBox="0 0 61 60" fill="none" xmlns="http://www.w3.org/2000/svg">
<path d="M57.85 42.5976L42.85 27.9666C42.25 27.3814 41.35 27.3814 40.75 27.9666C40.15 28.5519 40.15 29.4297 40.75 30.015L55.75 44.646C58.45 47.2796 58.45 51.6689 55.75 54.3024C54.4 55.6192 52.6 56.3508 50.8 56.3508C49 56.3508 47.2 55.6192 45.85 54.3024L27.1 36.16C32.35 33.9653 36.25 29.576 37.9 24.1626C38.5 22.1142 38.65 20.0659 38.5 18.0175C37.9 8.9463 30.1 1.33817 20.8 0.75293C17.65 0.60662 14.65 1.19186 11.8 2.36234C11.5 2.65496 11.2 2.94758 11.05 3.53282C10.9 3.97175 11.05 4.41068 11.5 4.7033L22 15.0913C23.8 16.847 23.8 19.6269 22 21.3827C20.2 22.9921 17.2 22.9921 15.55 21.3827L5.04998 10.9946C4.59998 10.702 4.14998 10.5557 3.69998 10.702C3.09998 10.8483 2.79998 11.141 2.49998 11.5799C1.29998 14.0672 0.699984 16.847 0.849984 19.6269C0.999984 28.4055 7.89998 36.0137 16.6 37.3305C17.65 37.4768 18.7 37.6231 19.75 37.6231C21.1 37.6231 22.6 37.4768 23.95 37.1842L43.75 56.3508C45.7 58.2528 48.1 59.277 50.8 59.277C53.5 59.277 56.05 58.2528 57.85 56.3508C61.75 52.5467 61.75 46.4017 57.85 42.5976ZM23.8 34.1116C21.7 34.6969 19.3 34.8432 17.05 34.4043C9.69998 33.2338 3.99998 26.9424 3.84998 19.6269C3.84998 18.0175 3.99998 16.4081 4.44998 14.7987L13.45 23.431C14.95 24.8941 16.75 25.6257 18.85 25.6257C20.95 25.6257 22.75 24.8941 24.25 23.431C27.25 20.5048 27.25 15.8229 24.25 12.8967L15.25 4.26437C16.9 3.82544 18.85 3.67913 20.65 3.67913C28.45 4.11806 35.05 10.4094 35.5 18.1638C35.65 19.9196 35.5 21.6753 34.9 23.2847C33.4 28.4055 29.2 32.5022 23.95 33.9653C23.95 34.1116 23.95 34.1116 23.8 34.1116Z" fill="black"/>
<path d="M48.4 51.5226C45.85 51.5226 43.9 49.6205 43.9 47.1332C43.9 44.646 45.85 42.7439 48.4 42.7439C50.95 42.7439 52.9 44.646 52.9 47.1332C52.9 49.4742 50.95 51.5226 48.4 51.5226ZM48.4 45.6701C47.5 45.6701 46.9 46.2554 46.9 47.1332C46.9 48.0111 47.5 48.5963 48.4 48.5963C49.3 48.5963 49.9 48.0111 49.9 47.1332C49.9 46.2554 49.3 45.6701 48.4 45.6701Z" fill="black"/>
</svg>
