<svg width="60" height="60" viewBox="0 0 60 60" fill="none" xmlns="http://www.w3.org/2000/svg">
<path fill-rule="evenodd" clip-rule="evenodd" d="M6 3.79999C6.55228 3.79999 7 4.2477 7 4.79999C7 5.60701 7.35025 6.21231 7.96945 6.65026C8.61999 7.11039 9.60053 7.39999 10.8 7.39999H46.8C48.6723 7.39999 50.2 8.9277 50.2 10.8V56.4C50.2 58.2723 48.6723 59.8 46.8 59.8H8.4C6.52772 59.8 5 58.2723 5 56.4V4.79999C5 4.2477 5.44772 3.79999 6 3.79999ZM7 8.40813V56.4C7 57.1677 7.63228 57.8 8.4 57.8H46.8C47.5677 57.8 48.2 57.1677 48.2 56.4V10.8C48.2 10.0323 47.5677 9.39999 46.8 9.39999H10.8C9.39539 9.39999 8.05228 9.08407 7 8.40813Z" fill="#1E1E1E"/>
<path fill-rule="evenodd" clip-rule="evenodd" d="M52.8 11.8H49.2V9.79999H52.8C54.6723 9.79999 56.2 11.3277 56.2 13.2V19.2C56.2 21.0723 54.6723 22.6 52.8 22.6H49.2V20.6H52.8C53.5677 20.6 54.2 19.9677 54.2 19.2V13.2C54.2 12.4323 53.5677 11.8 52.8 11.8Z" fill="#1E1E1E"/>
<path fill-rule="evenodd" clip-rule="evenodd" d="M52.8 22.6H49.2V20.6H52.8C54.6723 20.6 56.2 22.1277 56.2 24V30C56.2 31.8723 54.6723 33.4 52.8 33.4H49.2V31.4H52.8C53.5677 31.4 54.2 30.7677 54.2 30V24C54.2 23.2323 53.5677 22.6 52.8 22.6Z" fill="#1E1E1E"/>
<path fill-rule="evenodd" clip-rule="evenodd" d="M52.8 33.4H49.2V31.4H52.8C54.6723 31.4 56.2 32.9277 56.2 34.8V40.8C56.2 42.6723 54.6723 44.2 52.8 44.2H49.2V42.2H52.8C53.5677 42.2 54.2 41.5677 54.2 40.8V34.8C54.2 34.0323 53.5677 33.4 52.8 33.4Z" fill="#1E1E1E"/>
<path fill-rule="evenodd" clip-rule="evenodd" d="M52.8 44.2H49.2V42.2H52.8C54.6723 42.2 56.2 43.7277 56.2 45.6V51.6C56.2 53.4723 54.6723 55 52.8 55H49.2V53H52.8C53.5677 53 54.2 52.3677 54.2 51.6V45.6C54.2 44.8323 53.5677 44.2 52.8 44.2Z" fill="#1E1E1E"/>
<path fill-rule="evenodd" clip-rule="evenodd" d="M7.86045 2.80567C7.3796 3.17909 7 3.78153 7 4.80001H5C5 3.1941 5.6416 1.99653 6.63375 1.22605C7.58877 0.484402 8.78541 0.200012 9.8496 0.200012H50.4C52.2723 0.200012 53.8 1.72773 53.8 3.60001V10.8H51.8V3.60001C51.8 2.8323 51.1677 2.20001 50.4 2.20001H9.8496C9.10659 2.20001 8.37843 2.40342 7.86045 2.80567Z" fill="#1E1E1E"/>
<path d="M27.6144 22.8C33.9672 22.8 38.4 27.234 38.4 33.5292C38.4 37.6092 36.4308 39.3612 34.0476 39.3612C32.4588 39.3612 31.3104 38.5932 30.7896 37.4172H30.7632C30.1584 38.622 28.9284 39.3336 27.0672 39.3336C25.0944 39.3336 23.7552 38.4588 23.1492 36.6516C22.9308 35.9124 22.7964 35.1192 22.7964 33.6684C22.7964 32.2164 22.9308 31.4232 23.1492 30.6852C23.7552 28.878 25.0944 28.002 26.9856 28.002C28.5972 28.002 29.6652 28.686 30.1308 29.4804H30.1872V28.5228C30.1872 28.3584 30.2964 28.2756 30.4068 28.2756H31.8576C32.0232 28.2756 32.1012 28.3584 32.1012 28.5228V35.2572C32.1012 36.8736 33.0348 37.5828 34.0476 37.5828C35.3352 37.5828 36.4548 36.6252 36.4548 33.5304C36.4548 28.248 33.0072 24.5796 27.6144 24.5796C22.2216 24.5796 18.744 28.194 18.744 33.5304C18.744 38.898 22.2204 42.5112 27.6144 42.5112C30.2412 42.5112 31.9668 42.018 33.5292 41.25C33.6924 41.1684 33.828 41.196 33.9096 41.3604L34.3476 42.4548C34.4292 42.5904 34.3764 42.7296 34.2372 42.8112C32.406 43.7952 30.4332 44.2896 27.6132 44.2896C21.2352 44.2896 16.7988 39.9096 16.7988 33.5292C16.8 27.2076 21.2352 22.8 27.6144 22.8ZM27.4776 37.5276C28.7364 37.5276 29.5548 36.9792 29.9688 35.8308C30.1308 35.3364 30.1872 34.7628 30.1872 33.6672C30.1872 32.5728 30.1308 31.9968 29.9688 31.506C29.5548 30.354 28.7364 29.8068 27.4776 29.8068C26.2164 29.8068 25.3968 30.354 25.0128 31.506C24.8472 31.9968 24.7656 32.5728 24.7656 33.6672C24.7656 34.7628 24.8472 35.3364 25.0128 35.8308C25.3968 36.9792 26.2176 37.5276 27.4776 37.5276Z" fill="#1E1E1E"/>
</svg>
