<svg width="60" height="61" viewBox="0 0 60 61" fill="none" xmlns="http://www.w3.org/2000/svg">
<path d="M30 20.1388C33.841 20.1388 36.9783 23.3276 36.9783 27.2333V30.5267C36.9783 31.348 36.3227 32.0144 35.5149 32.0144H24.4852C23.6773 32.0144 23.0218 31.348 23.0218 30.5267V27.2333C23.0218 23.3284 26.159 20.1388 30 20.1388ZM17.0987 38.6241C15.174 38.6241 15.174 35.6485 17.0987 35.6485H42.9013C44.826 35.6485 44.826 38.6241 42.9013 38.6241H17.0987ZM17.0987 51.4277C15.174 51.4277 15.174 48.4529 17.0987 48.4529H42.9013C44.826 48.4529 44.826 51.4277 42.9013 51.4277H17.0987ZM17.0987 45.0263C15.174 45.0263 15.174 42.0507 17.0987 42.0507H42.9013C44.826 42.0507 44.826 45.0263 42.9013 45.0263H17.0987ZM8.49764 0.749298H41.5194C41.9233 0.749298 42.289 0.915729 42.554 1.18519L52.537 11.3346C52.8226 11.6249 52.9658 12.006 52.9658 12.3865V58.7629C52.9658 59.5843 52.3103 60.2507 51.5024 60.2507H8.49764C7.68976 60.2507 7.03424 59.5843 7.03424 58.7629V2.23709C7.03424 1.41574 7.68976 0.749298 8.49764 0.749298ZM40.9135 3.72415H9.96033V57.2758H50.0397V13.0025L40.9135 3.72415ZM30 7.85393C33.2585 7.85393 35.8997 10.5399 35.8997 13.8526C35.8997 17.1647 33.2585 19.8506 30 19.8506C26.7416 19.8506 24.1004 17.1647 24.1004 13.8526C24.1004 10.5399 26.7416 7.85393 30 7.85393ZM30 10.8295C28.3573 10.8295 27.0264 12.1826 27.0264 13.8526C27.0264 15.522 28.3573 16.8758 30 16.8758C31.6427 16.8758 32.9736 15.522 32.9736 13.8526C32.9736 12.1826 31.6427 10.8295 30 10.8295ZM30 23.1137C27.7748 23.1137 25.9479 24.9703 25.9479 27.2333V29.0396H34.0522V27.2333C34.0522 24.9703 32.2252 23.1137 30 23.1137Z" fill="#1E1E1E"/>
</svg>
