<?xml version="1.0" ?><svg viewBox="0 0 512 512" xmlns="http://www.w3.org/2000/svg"><g id="Locker"><path d="M45.9957,452.891A13.11,13.11,0,0,0,59.1058,466h393.782a13.1083,13.1083,0,0,0,13.1079-13.109V426.6271h-420Z"/><path d="M343.5043,111.6133v288.75h122.5v-288.75Zm50.3125,170.625c-.2713,17.2468-25.9745,17.2628-26.25,0v-35c.2734-17.2458,25.9765-17.2619,26.25.001Zm35-74.375h-43.75c-17.2437-.2714-17.265-25.9745,0-26.25h43.75C446.06,181.8846,446.0818,207.59,428.8168,207.8633Zm0-43.75h-43.75c-17.2437-.2714-17.265-25.9745,0-26.25h43.75C446.06,138.1346,446.0818,163.84,428.8168,164.1133Z"/><path d="M317.2543,400.3633v-288.75h-122.5v288.75Zm-80.9375-262.5h43.75c17.2436.2713,17.265,25.9765,0,26.25h-43.75C219.0731,163.8419,219.0518,138.1388,236.3168,137.8633Zm0,43.75h43.75c17.2436.2713,17.265,25.9765,0,26.25h-43.75C219.0731,207.5919,219.0518,181.8888,236.3168,181.6133Zm-17.5,65.625c.2734-17.2458,25.9765-17.2619,26.25.001v34.999c-.2713,17.2468-25.9745,17.2628-26.25,0Z"/><path d="M168.5043,400.3633v-288.75h-122.5v288.75Zm-80.9375-262.5h43.75c17.2436.2713,17.265,25.9765,0,26.25h-43.75C70.3231,163.8419,70.3018,138.1388,87.5668,137.8633Zm0,43.75h43.75c17.2436.2713,17.265,25.9765,0,26.25h-43.75C70.3231,207.5919,70.3018,181.8888,87.5668,181.6133Zm-17.5,65.625c.2734-17.2458,25.9765-17.2619,26.25.001v34.999c-.2713,17.2468-25.9745,17.2628-26.25,0Z"/><path d="M465.9957,59.109A13.1083,13.1083,0,0,0,452.8878,46H59.1058a13.11,13.11,0,0,0-13.11,13.109V85.3771h420Z"/></g></svg>