<svg width="174" height="174" viewBox="0 0 174 174" fill="none" xmlns="http://www.w3.org/2000/svg">
<g clip-path="url(#clip0_2_603)">
<path d="M96.9567 119.891C96.9567 119.891 110.127 115.152 113.549 114.058C116.963 112.957 120.271 113.111 122.024 114.657C124.679 117.002 146.731 138.025 148.575 139.868C150.419 141.713 150.69 146.102 147.07 149.716C143.465 153.336 127.3 167.301 121.7 166.134C116.092 164.956 92.7332 160.307 56.3135 108.28C19.8975 56.2649 23.5103 32.7175 24.3241 27.0487C25.1378 21.3799 43.7905 10.9606 48.4233 8.80433C53.0615 6.65204 57.0863 8.4797 58.1943 10.7648C59.4537 13.366 71.4893 41.1653 72.7937 44.3411C73.6883 46.5063 72.6597 49.6789 70.457 52.5135C68.2616 55.3585 59.3045 66.1104 59.3045 66.1104C59.3045 66.1104 62.6802 75.1956 76.1281 94.3976C89.5784 113.603 96.9567 119.891 96.9567 119.891Z" stroke="black" stroke-width="2" stroke-miterlimit="10"/>
</g>
<defs>
<clipPath id="clip0_2_603">
<rect width="150" height="150" fill="white" transform="translate(0 147.721) rotate(-80)"/>
</clipPath>
</defs>
</svg>
