<svg width="150" height="150" viewBox="0 0 150 150" fill="none" xmlns="http://www.w3.org/2000/svg">
<path fill-rule="evenodd" clip-rule="evenodd" d="M94.4886 149.683C144.541 148.237 149.467 137.701 149.467 77.8866C149.467 11.8865 143.467 5.88647 77.4666 5.88647C11.4668 5.88647 5.4668 11.8865 5.4668 77.8866C5.4668 137.857 10.4228 148.291 60.8346 149.695C61.2726 149.149 61.4346 148.465 61.4346 147.769C61.4346 146.269 61.3746 130.873 61.3446 125.575C43.1228 129.409 39.2768 117.061 39.2768 117.061C36.2948 109.729 31.9988 107.773 31.9988 107.773C26.0528 103.837 32.4488 103.915 32.4488 103.915C39.0248 104.365 42.4868 110.461 42.4868 110.461C48.3308 120.163 57.8228 117.361 61.5546 115.735C62.1486 111.637 63.8406 108.835 65.7126 107.251C51.1628 105.649 35.8688 100.201 35.8688 75.8706C35.8688 68.9406 38.4248 63.2766 42.6128 58.8365C41.9348 57.2285 39.6908 50.7725 43.2548 42.0365C43.2548 42.0365 48.7568 40.3265 61.2726 48.5405C66.4986 47.1305 72.1026 46.4285 77.6766 46.4045C83.2386 46.4285 88.8426 47.1305 94.0806 48.5405C106.591 40.3265 112.081 42.0365 112.081 42.0365C115.657 50.7725 113.407 57.2285 112.729 58.8365C116.929 63.2766 119.467 68.9406 119.467 75.8706C119.467 100.261 104.149 105.631 89.5506 107.197C91.9026 109.159 93.9966 113.035 93.9966 118.957C93.9966 124.633 93.9606 134.671 93.9366 141.325C93.9246 144.619 93.9186 147.079 93.9186 147.769C93.9186 148.423 94.0926 149.113 94.4886 149.683Z" fill="black"/>
</svg>
