<svg width="150" height="142" viewBox="0 0 150 142" fill="none" xmlns="http://www.w3.org/2000/svg">
<g opacity="0.6">
<path fill-rule="evenodd" clip-rule="evenodd" d="M53.5547 106.574L53.5547 59.4491L37.4707 59.4491L37.4707 106.574L53.5547 106.574ZM46.1133 52.3157C51.4746 52.3157 54.8145 48.7076 54.8145 44.1907C54.7266 39.5912 51.4746 36.0658 46.2012 36.0658C40.9277 36.0658 37.5 39.5912 37.5 44.1907C37.5 48.7076 40.8398 52.3157 45.9961 52.3157L46.1133 52.3157Z" fill="black"/>
<path fill-rule="evenodd" clip-rule="evenodd" d="M93.9258 58.3749C85.4004 58.3749 81.7383 62.8919 79.3945 66.0317L79.3945 59.4766L63.2813 59.4766L63.2813 106.574L79.3945 106.574L79.3945 79.7477C79.3945 78.3706 79.5117 76.9935 79.9512 76.0295C81.123 73.2753 83.7598 70.4384 88.2129 70.4384C94.043 70.4384 96.3867 74.6524 96.3867 80.8218L96.3867 106.574L112.5 106.574L112.5 79.0591C112.5 64.93 104.531 58.3749 93.9258 58.3749Z" fill="black"/>
<path d="M122.227 18.4388L28.3594 18.4388C23.2324 18.4388 18.75 21.9091 18.75 26.6739L18.75 115.112C18.75 119.904 23.2324 124.173 28.3594 124.173L122.197 124.173C127.354 124.173 131.221 119.877 131.221 115.112L131.221 26.6739C131.25 21.9091 127.354 18.4388 122.227 18.4388ZM121.289 115.387C120.967 115.387 29.5605 115.387 29.0332 115.387C28.5059 115.387 28.125 115.002 28.125 114.533C28.125 114.065 28.125 28.1061 28.125 27.8031C28.125 27.5001 28.418 27.2523 28.7109 27.2523C29.0039 27.2523 120.996 27.2523 121.289 27.2523C121.582 27.2523 121.875 27.5277 121.875 27.8031C121.875 34.2204 121.875 114.533 121.875 114.836C121.875 115.084 121.611 115.387 121.289 115.387Z" fill="black"/>
</g>
</svg>
